<svg width="141" height="18" viewBox="0 0 141 18" fill="none" xmlns="http://www.w3.org/2000/svg">
<path d="M0.588867 14V12.8926L2.02148 12.6465V5.85254L0.588867 5.60645V4.49023H3.75293V12.6465L5.18555 12.8926V14H0.588867ZM1.93359 2.14355V0.289062H3.75293V2.14355H1.93359ZM6.38086 14V12.8926L7.81348 12.6465V5.85254L6.38086 5.60645V4.49023H9.36035L9.4834 5.90527C9.7998 5.40137 10.1953 5.01172 10.6699 4.73633C11.1504 4.45508 11.6953 4.31445 12.3047 4.31445C13.3301 4.31445 14.124 4.61621 14.6865 5.21973C15.249 5.81738 15.5303 6.74316 15.5303 7.99707V12.6465L16.9629 12.8926V14H12.3662V12.8926L13.7988 12.6465V8.03223C13.7988 7.19434 13.6318 6.59961 13.2979 6.24805C12.9697 5.89648 12.4658 5.7207 11.7861 5.7207C11.2881 5.7207 10.8457 5.84082 10.459 6.08105C10.0781 6.32129 9.77344 6.64941 9.54492 7.06543V12.6465L10.9775 12.8926V14H6.38086ZM22.043 14.1846C21.4043 14.1846 20.8066 14.1201 20.25 13.9912C19.6934 13.8623 19.1016 13.6631 18.4746 13.3936L18.457 11.1348H19.7666L20.0918 12.4971C20.4199 12.6318 20.7363 12.7314 21.041 12.7959C21.3516 12.8545 21.6855 12.8838 22.043 12.8838C22.7461 12.8838 23.25 12.749 23.5547 12.4795C23.8594 12.21 24.0117 11.876 24.0117 11.4775C24.0117 11.1025 23.8564 10.7861 23.5459 10.5283C23.2412 10.2646 22.6846 10.042 21.876 9.86035C20.7275 9.59668 19.8809 9.24512 19.3359 8.80566C18.7969 8.36035 18.5273 7.76855 18.5273 7.03027C18.5273 6.51465 18.6768 6.05469 18.9756 5.65039C19.2744 5.24023 19.6904 4.91504 20.2236 4.6748C20.7568 4.43457 21.3779 4.31445 22.0869 4.31445C22.8076 4.31445 23.4229 4.39648 23.9326 4.56055C24.4482 4.72461 24.8965 4.94434 25.2773 5.21973L25.3652 7.39062H24.0645L23.7832 6.125C23.5781 5.97266 23.335 5.85547 23.0537 5.77344C22.7725 5.69141 22.4502 5.65039 22.0869 5.65039C21.5479 5.65039 21.1084 5.77637 20.7686 6.02832C20.4346 6.28027 20.2676 6.59668 20.2676 6.97754C20.2676 7.2002 20.3145 7.39355 20.4082 7.55762C20.5078 7.72168 20.6953 7.87109 20.9707 8.00586C21.2461 8.13477 21.6504 8.26367 22.1836 8.39258C23.5078 8.70312 24.4307 9.09863 24.9521 9.5791C25.4795 10.0596 25.7432 10.6514 25.7432 11.3545C25.7432 12.1572 25.4443 12.8311 24.8467 13.376C24.2549 13.915 23.3203 14.1846 22.043 14.1846ZM27.1143 14V12.8926L28.5469 12.6465V5.85254L27.1143 5.60645V4.49023H30.2783V12.6465L31.7109 12.8926V14H27.1143ZM28.459 2.14355V0.289062H30.2783V2.14355H28.459ZM36.6416 14.1846C35.8682 14.1846 35.2031 13.9941 34.6465 13.6133C34.0957 13.2266 33.6738 12.6904 33.3809 12.0049C33.0879 11.3193 32.9414 10.5195 32.9414 9.60547V9.4209C32.9414 8.40137 33.0879 7.50781 33.3809 6.74023C33.6738 5.97266 34.0986 5.37793 34.6553 4.95605C35.2119 4.52832 35.8799 4.31445 36.6592 4.31445C37.2217 4.31445 37.7168 4.41992 38.1445 4.63086C38.5781 4.83594 38.9473 5.13477 39.252 5.52734V1.65137L37.8193 1.40527V0.289062H39.252H40.9834V12.6465L42.416 12.8926V14H39.4805L39.3398 12.8662C39.0293 13.2998 38.6484 13.6279 38.1973 13.8506C37.752 14.0732 37.2334 14.1846 36.6416 14.1846ZM37.0811 12.7783C37.5967 12.7783 38.0303 12.6611 38.3818 12.4268C38.7334 12.1924 39.0234 11.8613 39.252 11.4336V7.02148C39.0293 6.62305 38.7393 6.30664 38.3818 6.07227C38.0244 5.83789 37.5967 5.7207 37.0986 5.7207C36.5479 5.7207 36.0938 5.87891 35.7363 6.19531C35.3789 6.50586 35.1123 6.93945 34.9365 7.49609C34.7607 8.04688 34.6729 8.68848 34.6729 9.4209V9.60547C34.6729 10.5605 34.8691 11.3281 35.2617 11.9082C35.6543 12.4883 36.2607 12.7783 37.0811 12.7783ZM47.8916 14.1846C47.0127 14.1846 46.248 13.9854 45.5977 13.5869C44.9473 13.1826 44.4434 12.623 44.0859 11.9082C43.7344 11.1934 43.5586 10.3672 43.5586 9.42969V9.04297C43.5586 8.14062 43.7432 7.33496 44.1123 6.62598C44.4873 5.91113 44.9824 5.34863 45.5977 4.93848C46.2188 4.52246 46.8955 4.31445 47.6279 4.31445C48.4834 4.31445 49.1982 4.49023 49.7725 4.8418C50.3525 5.19336 50.7891 5.68848 51.082 6.32715C51.375 6.95996 51.5215 7.70703 51.5215 8.56836V9.64941H45.3516L45.3252 9.69336C45.3369 10.3027 45.4424 10.8447 45.6416 11.3193C45.8467 11.7881 46.1396 12.1572 46.5205 12.4268C46.9014 12.6963 47.3584 12.8311 47.8916 12.8311C48.4775 12.8311 48.9902 12.749 49.4297 12.585C49.875 12.415 50.2588 12.1836 50.5811 11.8906L51.2578 13.0156C50.918 13.3438 50.4668 13.6221 49.9043 13.8506C49.3477 14.0732 48.6768 14.1846 47.8916 14.1846ZM45.4043 8.2959H49.79V8.06738C49.79 7.61035 49.708 7.20312 49.5439 6.8457C49.3857 6.48242 49.1455 6.19824 48.8232 5.99316C48.5068 5.78223 48.1084 5.67676 47.6279 5.67676C47.2412 5.67676 46.8896 5.79102 46.5732 6.01953C46.2568 6.24219 45.9961 6.54688 45.791 6.93359C45.5859 7.32031 45.4512 7.75977 45.3867 8.25195L45.4043 8.2959ZM59.4229 17.8408C59.2881 17.8408 59.1123 17.8232 58.8955 17.7881C58.6787 17.7588 58.5117 17.7295 58.3945 17.7002L58.5703 16.3379C58.6699 16.3496 58.8076 16.3584 58.9834 16.3643C59.1592 16.376 59.2793 16.3818 59.3438 16.3818C59.7129 16.3818 60.0117 16.2412 60.2402 15.96C60.4746 15.6787 60.6914 15.2949 60.8906 14.8086L61.3037 13.8066L57.9375 5.74707L56.918 5.60645V4.49023H60.9082V5.60645L59.7568 5.78223L61.6113 10.5371L62.0596 11.7764H62.1123L64.3096 5.78223L63.0967 5.60645V4.49023H67.0078V5.60645L66.0234 5.74707L62.2793 15.459C62.1035 15.916 61.8896 16.3232 61.6377 16.6807C61.3916 17.0439 61.0869 17.3281 60.7236 17.5332C60.3662 17.7383 59.9326 17.8408 59.4229 17.8408ZM71.9033 14.1846C71.0244 14.1846 70.2656 13.9795 69.627 13.5693C68.9941 13.1533 68.5049 12.582 68.1592 11.8555C67.8135 11.123 67.6406 10.2881 67.6406 9.35059V9.15723C67.6406 8.21973 67.8135 7.3877 68.1592 6.66113C68.5049 5.92871 68.9941 5.35449 69.627 4.93848C70.2656 4.52246 71.0186 4.31445 71.8857 4.31445C72.7646 4.31445 73.5205 4.52246 74.1533 4.93848C74.792 5.35449 75.2842 5.92578 75.6299 6.65234C75.9756 7.37891 76.1484 8.21387 76.1484 9.15723V9.35059C76.1484 10.2939 75.9756 11.1318 75.6299 11.8643C75.2842 12.5908 74.7949 13.1592 74.1621 13.5693C73.5293 13.9795 72.7764 14.1846 71.9033 14.1846ZM71.9033 12.8311C72.4541 12.8311 72.9141 12.6816 73.2832 12.3828C73.6582 12.0781 73.9395 11.665 74.127 11.1436C74.3203 10.6162 74.417 10.0186 74.417 9.35059V9.15723C74.417 8.48926 74.3203 7.89453 74.127 7.37305C73.9395 6.8457 73.6582 6.43262 73.2832 6.13379C72.9082 5.8291 72.4424 5.67676 71.8857 5.67676C71.335 5.67676 70.8721 5.8291 70.4971 6.13379C70.1221 6.43262 69.8408 6.8457 69.6533 7.37305C69.4658 7.89453 69.3721 8.48926 69.3721 9.15723V9.35059C69.3721 10.0186 69.4658 10.6162 69.6533 11.1436C69.8408 11.665 70.1221 12.0781 70.4971 12.3828C70.8779 12.6816 71.3467 12.8311 71.9033 12.8311ZM81.668 14.1846C80.6367 14.1846 79.8311 13.8535 79.251 13.1914C78.6709 12.5293 78.3809 11.498 78.3809 10.0977V5.85254L77.291 5.60645V4.49023H78.3809H80.1123V10.1152C80.1123 11.1289 80.2617 11.8262 80.5605 12.207C80.8594 12.5879 81.3252 12.7783 81.958 12.7783C82.5732 12.7783 83.0801 12.6553 83.4785 12.4092C83.8828 12.1572 84.1875 11.8027 84.3926 11.3457V5.85254L83.1182 5.60645V4.49023H84.3926H86.124V12.6465L87.2139 12.8926V14H84.5684L84.4541 12.5938C84.1553 13.1035 83.7686 13.4961 83.2939 13.7715C82.8252 14.0469 82.2832 14.1846 81.668 14.1846ZM88.418 14V12.8926L89.8506 12.6465V5.85254L88.418 5.60645V4.49023H91.3975L91.5469 5.70312L91.5645 5.87012C91.834 5.38379 92.165 5.00293 92.5576 4.72754C92.9561 4.45215 93.4102 4.31445 93.9199 4.31445C94.1016 4.31445 94.2861 4.33203 94.4736 4.36719C94.667 4.39648 94.8047 4.42578 94.8867 4.45508L94.6582 6.06348L93.4541 5.99316C92.9971 5.96387 92.6133 6.06934 92.3027 6.30957C91.9922 6.54395 91.752 6.86035 91.582 7.25879V12.6465L93.0146 12.8926V14H88.418ZM100.204 14V12.8926L101.637 12.6465V1.65137L100.204 1.40527V0.289062H103.368V5.75586C103.696 5.29883 104.098 4.94434 104.572 4.69238C105.047 4.44043 105.574 4.31445 106.154 4.31445C107.174 4.31445 107.965 4.61914 108.527 5.22852C109.09 5.83789 109.371 6.77539 109.371 8.04102V12.6465L110.804 12.8926V14H106.207V12.8926L107.64 12.6465V8.02344C107.64 7.23828 107.47 6.6582 107.13 6.2832C106.796 5.9082 106.295 5.7207 105.627 5.7207C105.152 5.7207 104.719 5.83496 104.326 6.06348C103.939 6.28613 103.62 6.59082 103.368 6.97754V12.6465L104.801 12.8926V14H100.204ZM116.183 14.1846C115.304 14.1846 114.539 13.9854 113.889 13.5869C113.238 13.1826 112.734 12.623 112.377 11.9082C112.025 11.1934 111.85 10.3672 111.85 9.42969V9.04297C111.85 8.14062 112.034 7.33496 112.403 6.62598C112.778 5.91113 113.273 5.34863 113.889 4.93848C114.51 4.52246 115.187 4.31445 115.919 4.31445C116.774 4.31445 117.489 4.49023 118.063 4.8418C118.644 5.19336 119.08 5.68848 119.373 6.32715C119.666 6.95996 119.812 7.70703 119.812 8.56836V9.64941H113.643L113.616 9.69336C113.628 10.3027 113.733 10.8447 113.933 11.3193C114.138 11.7881 114.431 12.1572 114.812 12.4268C115.192 12.6963 115.649 12.8311 116.183 12.8311C116.769 12.8311 117.281 12.749 117.721 12.585C118.166 12.415 118.55 12.1836 118.872 11.8906L119.549 13.0156C119.209 13.3438 118.758 13.6221 118.195 13.8506C117.639 14.0732 116.968 14.1846 116.183 14.1846ZM113.695 8.2959H118.081V8.06738C118.081 7.61035 117.999 7.20312 117.835 6.8457C117.677 6.48242 117.437 6.19824 117.114 5.99316C116.798 5.78223 116.399 5.67676 115.919 5.67676C115.532 5.67676 115.181 5.79102 114.864 6.01953C114.548 6.24219 114.287 6.54688 114.082 6.93359C113.877 7.32031 113.742 7.75977 113.678 8.25195L113.695 8.2959ZM124.383 14.1846C123.393 14.1846 122.64 13.9443 122.124 13.4639C121.608 12.9775 121.351 12.2949 121.351 11.416C121.351 10.8125 121.515 10.2881 121.843 9.84277C122.177 9.3916 122.657 9.04297 123.284 8.79688C123.911 8.54492 124.661 8.41895 125.534 8.41895H127.23V7.4873C127.23 6.91309 127.055 6.46777 126.703 6.15137C126.357 5.83496 125.868 5.67676 125.235 5.67676C124.837 5.67676 124.491 5.72656 124.198 5.82617C123.905 5.91992 123.639 6.05176 123.398 6.22168L123.214 7.54883H121.878V5.36914C122.306 5.02344 122.804 4.7627 123.372 4.58691C123.94 4.40527 124.57 4.31445 125.262 4.31445C126.416 4.31445 127.321 4.58984 127.978 5.14062C128.634 5.69141 128.962 6.47949 128.962 7.50488V12.084C128.962 12.207 128.962 12.3271 128.962 12.4443C128.968 12.5615 128.977 12.6787 128.988 12.7959L129.911 12.8926V14H127.424C127.371 13.7422 127.33 13.5107 127.301 13.3057C127.271 13.1006 127.251 12.8955 127.239 12.6904C126.905 13.1182 126.486 13.4756 125.982 13.7627C125.484 14.0439 124.951 14.1846 124.383 14.1846ZM124.638 12.7344C125.212 12.7344 125.736 12.5967 126.211 12.3213C126.686 12.0459 127.025 11.7148 127.23 11.3281V9.60547H125.473C124.676 9.60547 124.078 9.7959 123.68 10.1768C123.281 10.5576 123.082 10.9824 123.082 11.4512C123.082 11.8672 123.211 12.1865 123.469 12.4092C123.727 12.626 124.116 12.7344 124.638 12.7344ZM134.991 14.1846C134.218 14.1846 133.553 13.9941 132.996 13.6133C132.445 13.2266 132.023 12.6904 131.73 12.0049C131.438 11.3193 131.291 10.5195 131.291 9.60547V9.4209C131.291 8.40137 131.438 7.50781 131.73 6.74023C132.023 5.97266 132.448 5.37793 133.005 4.95605C133.562 4.52832 134.229 4.31445 135.009 4.31445C135.571 4.31445 136.066 4.41992 136.494 4.63086C136.928 4.83594 137.297 5.13477 137.602 5.52734V1.65137L136.169 1.40527V0.289062H137.602H139.333V12.6465L140.766 12.8926V14H137.83L137.689 12.8662C137.379 13.2998 136.998 13.6279 136.547 13.8506C136.102 14.0732 135.583 14.1846 134.991 14.1846ZM135.431 12.7783C135.946 12.7783 136.38 12.6611 136.731 12.4268C137.083 12.1924 137.373 11.8613 137.602 11.4336V7.02148C137.379 6.62305 137.089 6.30664 136.731 6.07227C136.374 5.83789 135.946 5.7207 135.448 5.7207C134.897 5.7207 134.443 5.87891 134.086 6.19531C133.729 6.50586 133.462 6.93945 133.286 7.49609C133.11 8.04688 133.022 8.68848 133.022 9.4209V9.60547C133.022 10.5605 133.219 11.3281 133.611 11.9082C134.004 12.4883 134.61 12.7783 135.431 12.7783Z" fill="black"/>
</svg>
